<?xml version="1.0" standalone="no"?>
<!DOCTYPE svg PUBLIC "-//W3C//DTD SVG 20010904//EN"
 "http://www.w3.org/TR/2001/REC-SVG-20010904/DTD/svg10.dtd">
<svg version="1.0" xmlns="http://www.w3.org/2000/svg"
 width="512.000000pt" height="594.000000pt" viewBox="0 0 512.000000 594.000000"
 preserveAspectRatio="xMidYMid meet">

<g transform="translate(0.000000,594.000000) scale(0.100000,-0.100000)"
fill="#000000" stroke="none">
<path d="M2438 5649 c-196 -29 -425 -152 -533 -287 -85 -107 -149 -251 -197
-447 -19 -78 -22 -120 -23 -305 -1 -198 -3 -224 -29 -334 -49 -210 -122 -391
-224 -552 -28 -45 -121 -180 -207 -300 -173 -241 -250 -365 -330 -529 -168
-350 -236 -648 -191 -840 25 -106 66 -205 85 -203 53 4 60 -2 114 -95 75 -126
182 -229 263 -253 119 -34 246 1 312 85 45 60 48 82 23 178 -24 94 -19 118 29
135 l29 10 -22 41 c-54 104 -23 600 54 836 11 36 58 143 104 236 102 208 119
250 185 439 51 147 81 215 137 312 16 27 44 85 62 129 18 44 39 88 46 99 13
17 15 17 47 -7 18 -14 57 -34 86 -45 29 -11 104 -52 165 -91 164 -103 201
-116 394 -138 57 -7 84 12 212 141 99 102 127 121 136 94 2 -7 6 -69 10 -137
7 -137 10 -147 85 -250 92 -128 140 -248 140 -352 0 -63 3 -71 32 -105 32 -37
108 -176 212 -389 38 -78 65 -153 91 -255 34 -132 38 -160 43 -312 2 -92 1
-179 -2 -193 -6 -25 -200 -194 -496 -432 -74 -59 -143 -123 -154 -142 -14 -25
-20 -53 -20 -112 -1 -93 4 -99 109 -125 39 -9 72 -18 74 -20 5 -4 -59 -93
-125 -175 -89 -109 -175 -142 -372 -141 -224 1 -422 46 -607 138 -129 63 -210
126 -296 227 -97 115 -93 101 -99 357 -4 195 -6 213 -13 140 -35 -392 -34
-496 8 -730 32 -175 32 -340 1 -400 -38 -72 -84 -118 -140 -139 -72 -27 -205
-37 -281 -21 -60 12 -148 51 -160 69 -12 20 -430 274 -592 360 -49 25 -20 1
35 -30 146 -83 354 -233 467 -337 94 -86 140 -117 216 -142 56 -19 80 -22 199
-18 110 3 143 8 180 25 59 27 104 73 127 129 20 50 25 52 193 84 156 29 239
31 596 11 l340 -18 84 -37 c46 -20 90 -36 97 -36 8 0 35 -20 61 -44 157 -144
242 -156 501 -64 319 112 413 140 611 183 304 67 443 110 464 144 4 5 -8 3
-24 -6 -17 -8 -131 -33 -253 -54 -391 -68 -400 -70 -727 -184 -123 -43 -145
-48 -250 -53 -108 -4 -119 -3 -162 19 -41 21 -131 94 -209 170 -47 44 -52 198
-11 306 10 26 54 102 99 168 44 66 149 230 233 365 269 432 397 588 503 614
36 9 95 -8 142 -40 20 -14 38 -24 40 -22 1 2 9 33 19 70 28 117 24 144 -46
276 -108 204 -134 263 -201 442 -138 371 -199 480 -446 795 -61 77 -129 178
-153 224 l-43 84 1 146 c0 80 8 252 17 381 46 648 3 909 -182 1083 -161 151
-446 232 -693 196z m25 -774 c91 -38 157 -142 157 -250 0 -68 -13 -124 -32
-137 -7 -5 0 -5 17 -1 17 4 78 7 136 6 l106 -2 -5 97 c-4 92 -2 100 25 151 41
78 89 114 161 119 47 3 63 0 91 -20 74 -49 106 -174 82 -312 -14 -79 -45 -166
-70 -197 l-17 -21 -32 27 -32 27 35 42 c47 58 65 105 65 172 0 128 -100 178
-179 89 -34 -39 -44 -80 -39 -159 3 -55 3 -55 -19 -41 -43 28 -34 15 14 -22
81 -61 234 -205 249 -234 20 -39 18 -108 -5 -145 -18 -29 -217 -213 -281 -260
-58 -43 -231 -38 -335 10 -31 14 -93 48 -138 75 -45 27 -111 61 -147 75 -111
45 -163 119 -165 233 0 50 3 57 36 87 l35 33 -28 34 c-38 45 -61 127 -61 220
-1 64 4 85 31 142 65 141 112 176 233 177 46 0 91 -6 112 -15z m587 -241 c0
-9 -7 -28 -15 -42 -8 -15 -19 -39 -25 -54 -11 -33 -26 -36 -33 -7 -8 30 3 80
21 102 19 21 52 22 52 1z m-2098 -2685 c-18 -18 -36 -29 -40 -25 -8 9 43 56
60 56 7 0 -3 -14 -20 -31z"/>
<path d="M2276 4680 c-35 -32 -66 -101 -66 -151 0 -63 47 -130 105 -149 26 -9
43 -7 86 10 80 30 82 32 90 102 10 82 -5 149 -41 188 -25 26 -35 30 -84 30
-47 0 -60 -4 -90 -30z m69 -20 c7 -12 -42 -75 -59 -75 -21 0 -18 37 5 61 24
25 44 31 54 14z"/>
<path d="M2602 4428 c-17 -17 -15 -38 3 -38 22 0 75 29 75 40 0 14 -64 12 -78
-2z"/>
<path d="M2850 4422 c0 -17 39 -44 55 -39 21 9 19 24 -4 37 -24 12 -51 13 -51
2z"/>
<path d="M2192 4198 c7 -19 184 -135 278 -182 223 -112 397 -128 555 -51 71
35 144 88 134 99 -3 3 -36 -15 -74 -41 -98 -66 -161 -86 -270 -86 -72 0 -105
5 -169 27 -123 42 -232 98 -340 175 -99 70 -121 82 -114 59z"/>
<path d="M4292 1751 c33 -63 103 -138 141 -150 33 -10 176 -32 205 -30 9 0
-26 10 -78 23 -144 33 -180 57 -268 171 l-23 30 23 -44z"/>
<path d="M4668 1563 c7 -3 16 -2 19 1 4 3 -2 6 -13 5 -11 0 -14 -3 -6 -6z"/>
<path d="M4732 1540 c82 -44 90 -77 62 -280 -10 -79 -13 -137 -7 -185 8 -70 8
-69 14 60 3 72 10 173 14 225 6 80 5 101 -9 128 -14 28 -79 73 -103 72 -4 -1
8 -10 29 -20z"/>
</g>
</svg>
