<?xml version="1.0" standalone="no"?>
<!DOCTYPE svg PUBLIC "-//W3C//DTD SVG 20010904//EN"
 "http://www.w3.org/TR/2001/REC-SVG-20010904/DTD/svg10.dtd">
<svg version="1.0" xmlns="http://www.w3.org/2000/svg"
 width="320.000000pt" height="320.000000pt" viewBox="0 0 320.000000 320.000000"
 preserveAspectRatio="xMidYMid meet">

<g transform="translate(0.000000,320.000000) scale(0.100000,-0.100000)"
fill="#000000" stroke="none">
<path d="M1530 3159 c-82 -13 -191 -71 -241 -127 -96 -109 -123 -233 -114
-532 6 -171 4 -218 -10 -285 -17 -81 -65 -195 -107 -251 -13 -17 -58 -77 -100
-133 -201 -264 -308 -514 -308 -719 0 -83 0 -84 -44 -140 -59 -77 -73 -88
-146 -117 -125 -49 -142 -81 -138 -258 2 -91 -2 -150 -12 -190 -12 -50 -12
-63 0 -100 22 -63 67 -83 236 -107 162 -23 199 -32 275 -70 176 -89 385 -76
455 29 l24 37 138 22 c165 27 159 27 349 5 138 -16 152 -19 157 -38 8 -33 75
-104 118 -126 58 -30 124 -34 194 -14 85 25 136 58 228 150 66 66 100 90 186
134 136 70 186 105 206 143 22 43 12 90 -33 156 -21 30 -46 66 -55 80 -10 15
-27 65 -39 112 -20 74 -28 91 -66 128 l-44 42 13 43 c6 23 12 93 11 157 0 94
-5 131 -27 203 -48 160 -137 316 -293 514 -116 146 -127 162 -162 232 -46 91
-60 171 -60 357 0 288 -41 440 -147 554 -94 100 -253 140 -444 109z m265 -24
c117 -31 210 -117 255 -235 38 -103 52 -199 59 -430 9 -244 12 -262 76 -375
18 -33 75 -112 126 -175 171 -215 265 -376 311 -536 39 -138 28 -394 -18 -394
-10 0 -14 12 -14 38 0 20 -9 51 -19 69 -35 56 -173 136 -257 149 l-42 6 -17
66 c-21 85 -78 230 -120 307 -99 180 -239 564 -236 649 1 41 -3 54 -24 76
l-26 27 23 39 c19 32 23 53 23 120 0 72 -3 86 -30 129 -99 159 -303 82 -307
-116 l-1 -49 -37 0 c-37 0 -37 0 -44 51 -13 99 -68 169 -132 169 -44 0 -97
-46 -112 -98 -23 -76 -11 -177 28 -224 19 -23 19 -23 -12 -55 -38 -39 -41 -81
-9 -124 19 -26 22 -38 16 -82 -18 -137 -64 -273 -188 -547 -91 -204 -106 -262
-109 -431 -1 -109 11 -143 69 -185 85 -62 183 -176 227 -261 34 -68 12 -118
-56 -129 -32 -6 -37 -3 -70 42 -20 27 -59 92 -88 144 -134 242 -214 312 -324
282 -54 -14 -58 -6 -51 92 17 213 147 482 359 748 73 91 126 191 152 288 15
54 18 110 19 345 0 261 2 284 23 345 28 86 74 154 131 196 43 31 132 67 191
77 62 10 200 6 255 -8z m-28 -406 c70 -26 113 -100 113 -194 0 -52 -28 -145
-43 -145 -3 0 -21 7 -41 15 -32 14 -35 17 -26 41 15 38 12 101 -5 134 -32 63
-106 26 -120 -60 -4 -22 -8 -40 -9 -40 -2 0 -18 5 -36 11 -32 12 -32 12 -27
64 11 105 70 176 154 184 6 0 24 -4 40 -10z m-371 -44 c28 -18 56 -80 62 -137
4 -44 3 -48 -22 -58 -36 -13 -33 -15 -41 23 -17 81 -65 103 -91 41 -16 -39
-12 -83 11 -120 15 -23 4 -44 -23 -44 -22 0 -54 87 -54 149 0 134 72 200 158
146z m348 -104 c25 -27 30 -81 13 -124 -15 -35 -17 -36 -47 -26 -53 19 -66 77
-30 137 22 37 39 40 64 13z m-377 -42 c24 -47 11 -109 -22 -109 -28 0 -45 83
-24 121 13 25 30 20 46 -12z m318 -109 c163 -75 180 -84 193 -112 10 -22 10
-33 -1 -60 -20 -47 -37 -59 -181 -133 -184 -93 -212 -90 -361 28 -84 66 -111
104 -101 140 3 12 47 56 98 97 140 112 185 117 353 40z m224 -297 c33 -115
125 -341 194 -478 72 -145 121 -269 138 -351 l13 -62 52 -11 c57 -11 134 -47
200 -92 47 -32 79 -89 70 -125 -8 -30 -26 -31 -26 -1 0 47 -36 84 -124 128
-67 33 -96 42 -140 43 -65 0 -90 -17 -108 -76 -6 -21 -16 -38 -22 -38 -22 0
-77 -60 -97 -104 -18 -42 -26 -88 -48 -291 -6 -49 -17 -113 -25 -141 -14 -45
-21 -54 -78 -87 -35 -21 -99 -49 -143 -63 -151 -48 -284 -43 -417 18 -54 25
-75 41 -108 86 -56 74 -58 82 -26 82 34 0 76 41 76 75 0 77 -133 258 -247 336
-61 42 -78 93 -69 212 11 152 30 215 129 439 103 230 142 342 160 456 6 39 16
72 22 72 5 0 35 -21 65 -46 70 -58 106 -74 173 -74 46 0 72 9 182 65 71 36
138 74 149 85 11 11 23 20 27 20 3 0 16 -35 28 -77z m481 -999 c78 -29 130
-71 130 -104 0 -52 -55 -108 -142 -145 -72 -29 -124 -10 -157 58 -29 60 -30
168 -1 197 28 28 83 26 170 -6z m-186 -212 c21 -42 71 -72 116 -72 49 0 137
44 186 92 37 36 46 39 75 33 93 -18 126 -57 154 -183 11 -48 28 -88 51 -120
78 -109 93 -162 57 -210 -11 -16 -72 -54 -143 -92 -103 -53 -140 -79 -215
-150 -49 -48 -110 -98 -135 -113 -59 -34 -161 -60 -203 -51 -117 25 -208 137
-191 235 3 19 23 106 44 194 21 90 43 213 49 280 15 162 26 199 74 249 l40 41
12 -50 c6 -27 19 -65 29 -83z m-1359 84 c46 -35 112 -129 171 -246 30 -57 82
-134 132 -195 110 -133 137 -188 137 -281 0 -61 -4 -75 -27 -106 -44 -57 -90
-81 -172 -86 -80 -5 -170 15 -245 53 -77 38 -141 56 -259 71 -144 17 -184 28
-222 60 -26 22 -30 32 -30 76 0 27 7 75 16 106 14 48 15 67 4 144 -6 49 -9
101 -5 116 11 44 63 90 137 118 61 23 75 34 124 96 31 38 70 78 88 89 42 27
104 20 151 -15z m1104 -623 c-10 -43 -19 -95 -19 -115 0 -36 -2 -38 -31 -38
-18 0 -89 7 -159 16 -117 15 -134 15 -236 -1 -60 -9 -128 -19 -150 -22 l-42
-5 -5 73 c-2 41 -8 85 -12 97 l-8 24 39 -20 c49 -25 132 -49 199 -57 104 -13
278 29 377 90 29 19 56 34 59 34 3 1 -2 -34 -12 -76z"/>
<path d="M1440 2430 c-8 -5 -12 -12 -8 -15 9 -9 48 4 48 16 0 12 -21 11 -40
-1z"/>
<path d="M1560 2431 c0 -12 39 -25 48 -16 7 7 -17 25 -35 25 -7 0 -13 -4 -13
-9z"/>
<path d="M1755 2283 c-22 -19 -74 -52 -115 -72 -63 -30 -85 -36 -140 -36 -76
1 -110 16 -177 80 -50 48 -53 50 -53 36 0 -15 60 -69 108 -98 84 -50 174 -47
285 8 53 27 147 97 147 109 0 17 -14 10 -55 -27z"/>
</g>
</svg>
